# xmcd
#
# Track frame offsets: 
#        150
#        13092
#        23872
#        37904
#        49520
#        63642
#        77673
#        90797
#        100486
#        113570
#        126650
#        136078
#        148842
#        161480
#        172627
#        185363
#        200145
#        212078
#        224266
#        237893
#        249569
#        261713
#        273801
#        285591
#        298607
#        309656
#        323042
#        334842
#
# Disc length: 4623 seconds
#
# Revision: 0
# Processed by: cddbd v1.5.2PL0 Copyright (c) Steve Scherf et al.
# Submitted via: ExactAudioCopy v0.99pb4
#
DISCID=9b120d1c
DTITLE=Various Artist - When Girls Do It
DYEAR=2009
DGENRE=Blues
TTITLE0=Bobby 'Guitar' Bennett - When Girls Do It
TTITLE1=Junior Wells - Things I Do For You
TTITLE2=Little Oscar Stricklin - Suicide Blues
TTITLE3=Harmonica Fats - How Low Is Low
TTITLE4=Magic Slim - Love Me Baby
TTITLE5=Ike Turner's Kings Of Rhythm - Down And Out
TTITLE6=Sam Baker - Sweet Little Angel
TTITLE7=Drifting Charles - Evil Hearted Woman
TTITLE8=Drifting Charles - Drifting Cloud
TTITLE9=Memphis Slim And His House Rockers - Blue And Lonesome
TTITLE10=Donnie Jacobs - Street Walkin' Woman
TTITLE11=TV Slim - My Heart's Full Of Pain
TTITLE12=TV Slim - Don't Knock The Blues
TTITLE13=Buddy Guy - Hard But It's Fair
TTITLE14=Magic Sam - My Love Is Your Love
TTITLE15=Danny Boy - Wild Woman
TTITLE16=Danny Boy - Kokomo Me Baby
TTITLE17=Jimmy McCracklin - Fare Well
TTITLE18=Jimmy McCracklin - Take A Chance
TTITLE19=Mr. Bo - I Ain't Gonna Suffer
TTITLE20=Mr. Bo - If Trouble Was Money
TTITLE21=Junior Wells - I'm A Stranger
TTITLE22=Clear Waters - Hillbilly Blues
TTITLE23=Clear Waters - Boogie Woogie Baby
TTITLE24=Tender Slim - Don't Cut Out On Me
TTITLE25=Tender Slim - I'm Checkin' Up
TTITLE26=Sugar Boy Williams - Little Girl
TTITLE27=Sugar Boy Williams - Five Long Years
EXTD=
EXTT0=
EXTT1=
EXTT2=
EXTT3=
EXTT4=
EXTT5=
EXTT6=
EXTT7=
EXTT8=
EXTT9=
EXTT10=
EXTT11=
EXTT12=
EXTT13=
EXTT14=
EXTT15=
EXTT16=
EXTT17=
EXTT18=
EXTT19=
EXTT20=
EXTT21=
EXTT22=
EXTT23=
EXTT24=
EXTT25=
EXTT26=
EXTT27=
PLAYORDER=
